<?xml version="1.0" standalone="no"?><!DOCTYPE svg PUBLIC "-//W3C//DTD SVG 1.1//EN" "http://www.w3.org/Graphics/SVG/1.1/DTD/svg11.dtd"><svg t="1545038202235" class="icon" style="" viewBox="0 0 1024 1024" version="1.1" xmlns="http://www.w3.org/2000/svg" p-id="8973" xmlns:xlink="http://www.w3.org/1999/xlink" width="200" height="200"><defs><style type="text/css"></style></defs><path d="M512 31.5C245.05555598 31.5 31.5 245.05555598 31.5 512S245.05555598 992.5 512 992.5 992.5 778.94444402 992.5 512 778.94444402 31.5 512 31.5z m185.08148165 647.78518531c10.67777799 10.67777799 10.67777799 32.03333302 0 42.71111102-10.67777799 10.67777799-32.03333302 10.67777799-42.711111 0l-142.37037065-153.04814863-142.37037065 153.04814863c-10.67777799 10.67777799-32.03333302 14.23703669-42.711111 0-10.67777799-10.67777799-14.23703669-32.03333302 0-42.71111102l145.92962935-156.60740732-149.48888806-156.60740734c-10.67777799-10.67777799-10.67777799-32.03333302 0-42.71111101 10.67777799-10.67777799 32.03333302-10.67777799 42.71111101 0l142.3703697 153.0481477 142.37037066-153.0481477c10.67777799-10.67777799 32.03333302-14.23703669 42.711111 0 10.67777799 10.67777799 14.23703669 32.03333302 0 42.71111101l-145.92962935 156.60740734 149.48888899 156.60740732z" p-id="8974" fill="#cccccc"></path></svg>